<?xml version="1.0" encoding="UTF-8" standalone="no"?>
<!DOCTYPE svg PUBLIC "-//W3C//DTD SVG 1.1//EN" "http://www.w3.org/Graphics/SVG/1.1/DTD/svg11.dtd">
<svg width="100%" height="100%" viewBox="0 0 449 174" version="1.1" xmlns="http://www.w3.org/2000/svg" xmlns:xlink="http://www.w3.org/1999/xlink" xml:space="preserve" xmlns:serif="http://www.serif.com/" style="fill-rule:evenodd;clip-rule:evenodd;stroke-linejoin:round;stroke-miterlimit:2;">
    <path id="Path_42" d="M376.59,55.86L391.52,55.86L356.78,115.99L341.85,115.99L376.59,55.86ZM423.85,0L395.8,48.62L334.71,48.62L291.62,123.24L398.66,123.24L448.95,36.25L423.85,0Z" style="fill:white;fill-rule:nonzero;"/>
    <path id="Path_43" d="M158.19,48.62L115.1,123.25L161.15,123.25L200.07,55.88L214.98,55.88L176.1,123.26L222.15,123.26L261.03,55.88L275.96,55.88L228.86,137.46L253.99,173.71L326.2,48.63L158.18,48.63L158.19,48.62Z" style="fill:white;fill-rule:nonzero;"/>
    <path id="Path_44" d="M43.09,48.62L0,123.24L107.04,123.24L130.42,82.73L84.38,82.73L65.19,115.99L50.25,115.99L84.96,55.87L99.91,55.87L88.34,75.91L134.36,75.91L150.11,48.62L43.09,48.62Z" style="fill:white;fill-rule:nonzero;"/>
</svg>
